<?xml version="1.0" encoding="utf-8"?>
<!-- Generator: Adobe Illustrator 23.0.2, SVG Export Plug-In . SVG Version: 6.00 Build 0)  -->
<svg version="1.1" id="Camada_1" opacity="0.03" width="2000" xmlns="http://www.w3.org/2000/svg" xmlns:xlink="http://www.w3.org/1999/xlink" x="0px" y="0px"
	 viewBox="0 0 785.9 690.7" style="enable-background:new 0 0 785.9 690.7;" xml:space="preserve">
<style type="text/css">
	.st0{fill:url(#SVGID_1_);}
	.st1{fill:url(#SVGID_2_);}
	.st2{fill:url(#SVGID_3_);}
	.st3{fill:url(#SVGID_4_);}
	.st4{fill:url(#SVGID_5_);}
	.st5{fill:url(#SVGID_6_);}
</style>
<linearGradient id="SVGID_1_" gradientUnits="userSpaceOnUse" x1="-352.267" y1="2276.9756" x2="120.7496" y2="2276.9756" gradientTransform="matrix(0.4226 0.9063 -0.9063 0.4226 619.4658 -318.9771)">
	<stop  offset="0" style="stop-color:#676767"/>
	<stop  offset="1" style="stop-color:#000000"/>
</linearGradient>
<polygon class="st0" points="-1762.6,702.7 -1669.4,702.7 -1669.4,702.8 -1661.3,702.8 -1661.3,702.7 -1285.9,702.7 -1198.4,661.9 
	-1675.3,662 -1675.4,662 -1299.3,211.8 -1352.4,211.8 "/>
<linearGradient id="SVGID_2_" gradientUnits="userSpaceOnUse" x1="-84.6506" y1="-1921.7498" x2="388.366" y2="-1921.7498" gradientTransform="matrix(-0.4226 -0.9063 0.9063 -0.4226 452.3156 -283.6042)">
	<stop  offset="0" style="stop-color:#676767"/>
	<stop  offset="1" style="stop-color:#000000"/>
</linearGradient>
<polygon class="st1" points="-1084.1,226.6 -1177.2,226.6 -1177.2,226.6 -1185.4,226.6 -1185.4,226.6 -1560.8,226.6 -1648.2,267.4 
	-1171.4,267.4 -1171.3,267.4 -1547.4,717.5 -1494.3,717.5 "/>
<g>
	<linearGradient id="SVGID_3_" gradientUnits="userSpaceOnUse" x1="0" y1="294.5161" x2="440.323" y2="294.5161">
		<stop  offset="0" style="stop-color:#676767"/>
		<stop  offset="1" style="stop-color:#000000"/>
	</linearGradient>
	<polygon class="st2" points="187.5,2.5 150.9,81.1 150.9,81.1 147.7,87.9 147.7,88 0,404.7 0,494.5 187.6,92.2 187.6,92.1 
		419.4,586.5 440.3,541.7 	"/>
	<linearGradient id="SVGID_4_" gradientUnits="userSpaceOnUse" x1="345.5329" y1="291.9977" x2="785.8558" y2="291.9977">
		<stop  offset="0" style="stop-color:#676767"/>
		<stop  offset="1" style="stop-color:#000000"/>
	</linearGradient>
	<polygon class="st3" points="598.3,584 635,505.4 635,505.4 638.2,498.6 638.2,498.5 785.9,181.8 785.9,92 598.3,494.3 
		598.2,494.4 366.4,0 345.5,44.8 	"/>
	<linearGradient id="SVGID_5_" gradientUnits="userSpaceOnUse" x1="166.6674" y1="398.7173" x2="671.5368" y2="398.7173">
		<stop  offset="0" style="stop-color:#676767"/>
		<stop  offset="1" style="stop-color:#000000"/>
	</linearGradient>
	<polygon class="st4" points="550.7,409.2 671.5,151.5 650.6,106.7 607,199.8 607,198.7 514.6,396.9 419.1,600.5 323.6,396.9 
		231.2,198.7 231.2,199.8 187.6,106.7 166.7,151.5 287.5,409.2 378.9,605.3 378.9,605.3 382.1,612.1 382.1,612.1 418.7,690.7 
		419.1,689.9 419.5,690.7 456.1,612.1 456.1,612.1 459.3,605.3 459.3,605.3 	"/>
	<linearGradient id="SVGID_6_" gradientUnits="userSpaceOnUse" x1="145.9586" y1="354.9696" x2="227.6214" y2="354.9696">
		<stop  offset="0" style="stop-color:#676767"/>
		<stop  offset="1" style="stop-color:#000000"/>
	</linearGradient>
	<rect x="146" y="340.2" class="st5" width="81.7" height="29.5"/>
</g>
</svg>
